<svg width="200" height="200" viewBox="0 0 200 200" fill="none" xmlns="http://www.w3.org/2000/svg">
<g filter="url(#filter0_d_1844_4240)">
<path fill-rule="evenodd" clip-rule="evenodd" d="M38 101.476V182.386H64.7382C88.5084 182.386 91.4763 179.393 91.4763 155.416C91.4763 133.121 95.0949 128.446 112.377 128.446C137.84 128.446 162.778 102.519 162.778 76.0429C162.778 41.7188 132.19 20.5652 82.5636 20.5652H38V101.476Z" fill="black"/>
<path d="M64.7382 179.886H40.5V101.476V23.0652H82.5636C107.065 23.0652 126.563 28.2935 139.859 37.4887C153.06 46.6187 160.278 59.7328 160.278 76.0429C160.278 88.5131 154.386 101.019 145.324 110.44C136.258 119.866 124.272 125.946 112.377 125.946C103.745 125.946 97.3388 127.045 93.4696 132.039C91.5874 134.468 90.4923 137.593 89.8473 141.376C89.2021 145.161 88.9763 149.801 88.9763 155.416C88.9763 161.401 88.7875 165.891 88.1798 169.308C87.5757 172.704 86.6027 174.764 85.2457 176.132C83.8912 177.499 81.8566 178.476 78.4989 179.084C75.1175 179.696 70.6711 179.886 64.7382 179.886Z" stroke="black" stroke-width="5"/>
</g>
<path d="M63.8686 182.065H40.5V100.283V18.5H81.1144C104.776 18.5 123.593 23.9343 136.429 33.4921C149.183 42.989 156.22 56.6865 156.22 73.7898C156.22 86.8719 150.481 99.9443 141.713 109.76C132.93 119.592 121.37 125.877 109.958 125.877C101.566 125.877 95.3015 127.039 91.5485 132.254C89.7445 134.761 88.6957 137.98 88.0763 141.892C87.4557 145.812 87.2372 150.627 87.2372 156.471C87.2372 162.706 87.0549 167.405 86.4627 170.99C85.8718 174.567 84.9152 176.749 83.5878 178.191C82.2835 179.607 80.3429 180.609 77.1344 181.234C73.888 181.866 69.6073 182.065 63.8686 182.065Z" stroke="black" stroke-width="5"/>
<defs>
<filter id="filter0_d_1844_4240" x="34" y="20.5652" width="132.778" height="175.821" filterUnits="userSpaceOnUse" color-interpolation-filters="sRGB">
<feFlood flood-opacity="0" result="BackgroundImageFix"/>
<feColorMatrix in="SourceAlpha" type="matrix" values="0 0 0 0 0 0 0 0 0 0 0 0 0 0 0 0 0 0 127 0" result="hardAlpha"/>
<feOffset dy="10"/>
<feGaussianBlur stdDeviation="2"/>
<feComposite in2="hardAlpha" operator="out"/>
<feColorMatrix type="matrix" values="0 0 0 0 0 0 0 0 0 0 0 0 0 0 0 0 0 0 0.25 0"/>
<feBlend mode="normal" in2="BackgroundImageFix" result="effect1_dropShadow_1844_4240"/>
<feBlend mode="normal" in="SourceGraphic" in2="effect1_dropShadow_1844_4240" result="shape"/>
</filter>
</defs>
</svg>
